# xmcd
#
# Track frame offsets: 
#        150
#        20374
#        41437
#        63709
#        91621
#        110119
#        126985
#        152531
#        182286
#        201858
#        222532
#        239472
#        257986
#        270335
#
# Disc length: 3977 seconds
#
# Revision: 4
# Processed by: cddbd v1.5.2PL0 Copyright (c) Steve Scherf et al.
# Submitted via: ExactAudioCopy v0.99pb4
#
DISCID=c30f870e
DTITLE=Kid Rock - Rock N Roll Jesus
DYEAR=2007
DGENRE=Rock
TTITLE0=Rock N Roll Jesus
TTITLE1=Amen
TTITLE2=All Summer Long
TTITLE3=Roll On
TTITLE4=So Hott
TTITLE5=Sugar
TTITLE6=When U Love Someone
TTITLE7=New Orleans
TTITLE8=Don't Tell Me U Love Me
TTITLE9=Blue Jeans And A Rosary
TTITLE10=Half Your Age
TTITLE11=Lowlife (Living The Highlife)
TTITLE12=Guilty
TTITLE13=Jackson, Mississippi (Live)
EXTD=
EXTT0=
EXTT1=
EXTT2=
EXTT3=
EXTT4=
EXTT5=
EXTT6=
EXTT7=
EXTT8=
EXTT9=
EXTT10=
EXTT11=
EXTT12=
EXTT13=
PLAYORDER=
